<?xml version="1.0" standalone="no"?>
<!DOCTYPE svg PUBLIC "-//W3C//DTD SVG 20010904//EN"
 "http://www.w3.org/TR/2001/REC-SVG-20010904/DTD/svg10.dtd">
<svg version="1.0" xmlns="http://www.w3.org/2000/svg"
 width="96.000000pt" height="96.000000pt" viewBox="0 0 96.000000 96.000000"
 preserveAspectRatio="xMidYMid meet">

<g transform="translate(0.000000,96.000000) scale(0.100000,-0.100000)"
fill="#000000" stroke="none">
<path d="M185 934 c-16 -16 -15 -35 1 -78 5 -14 -3 -16 -58 -16 -36 0 -69 -5
-76 -12 -18 -18 -14 -45 9 -62 20 -14 22 -31 40 -320 10 -168 23 -314 29 -325
16 -30 43 -41 99 -41 l51 0 0 198 c0 171 3 202 19 237 34 74 118 133 213 150
34 6 37 10 44 48 3 23 15 48 25 55 11 7 19 21 19 31 0 36 -19 41 -176 41
l-151 0 -13 45 c-7 25 -21 50 -31 55 -23 13 -25 13 -44 -6z"/>
<path d="M518 587 c-85 -24 -158 -91 -158 -145 0 -40 17 -42 265 -40 205 3
239 5 248 19 25 40 -31 116 -112 152 -56 24 -180 32 -243 14z"/>
<path d="M460 330 c-8 -6 -32 -15 -52 -20 -40 -11 -58 -41 -38 -65 16 -19 48
-19 95 1 34 14 41 14 76 0 50 -20 108 -20 158 0 35 14 42 14 76 0 47 -20 79
-20 95 -1 20 25 2 52 -48 70 -73 26 -96 28 -136 11 -48 -20 -83 -20 -129 -1
-42 17 -76 19 -97 5z"/>
<path d="M372 148 c-16 -16 -15 -43 2 -57 9 -8 84 -11 251 -9 214 3 239 5 249
20 8 13 8 23 0 35 -10 16 -35 18 -250 21 -178 2 -243 -1 -252 -10z"/>
</g>
</svg>
