<?xml version="1.0" standalone="no"?>
<!DOCTYPE svg PUBLIC "-//W3C//DTD SVG 20010904//EN"
 "http://www.w3.org/TR/2001/REC-SVG-20010904/DTD/svg10.dtd">
<svg version="1.0" xmlns="http://www.w3.org/2000/svg"
 width="1024.000000pt" height="1024.000000pt" viewBox="0 0 1024.000000 1024.000000"
 preserveAspectRatio="xMidYMid meet">

<g transform="translate(0.000000,1024.000000) scale(0.100000,-0.100000)"
fill="#000000" stroke="none">
<path d="M0 5120 l0 -5120 5120 0 5120 0 0 5120 0 5120 -5120 0 -5120 0 0
-5120z m3618 3763 l3 -23 -198 -1 c-392 -3 -393 -3 -393 -30 0 -13 -8 -23 -20
-26 -12 -3 -28 -19 -36 -35 -19 -36 -49 -35 -49 2 0 18 6 26 22 28 14 2 23 11
25 25 2 14 11 23 26 25 16 3 25 12 29 33 l6 30 291 -3 291 -3 3 -22z m57 -53
c0 -8 12 -21 28 -28 15 -7 27 -19 27 -27 0 -7 9 -17 20 -20 13 -4 20 -15 20
-31 0 -17 -5 -24 -20 -24 -16 0 -20 7 -20 30 0 25 -4 30 -25 30 -20 0 -25 5
-25 24 0 21 -5 24 -27 23 -22 -2 -29 3 -31 21 -3 20 0 23 25 20 17 -2 28 -9
28 -18z m-38 -76 c18 -18 33 -37 33 -41 0 -5 9 -14 20 -21 18 -11 20 -23 20
-117 0 -93 2 -105 19 -115 12 -6 118 -10 275 -10 l255 0 26 -24 c28 -25 35
-32 73 -70 19 -21 22 -34 22 -109 0 -78 2 -86 21 -92 13 -4 28 0 40 11 19 17
20 29 17 174 -3 154 -3 155 22 181 14 15 40 43 58 63 l33 36 244 0 c233 0 244
-1 250 -19 3 -11 15 -23 25 -26 10 -3 22 -15 25 -25 3 -10 15 -22 26 -25 18
-6 19 -18 19 -308 0 -166 4 -308 9 -316 7 -11 42 -13 169 -12 175 2 208 -2
217 -29 3 -10 14 -20 25 -23 11 -3 23 -13 27 -24 3 -10 18 -28 31 -41 23 -22
24 -29 19 -85 -11 -109 -10 -1138 1 -1149 10 -10 490 -12 516 -2 8 3 16 14 19
24 4 15 20 19 123 25 65 4 161 5 212 2 98 -6 142 2 142 27 0 21 151 28 525 24
l320 -4 3 -26 c2 -16 11 -28 23 -31 25 -7 22 -40 -4 -45 -12 -3 -17 3 -17 21
0 25 -2 25 -102 31 -79 5 -705 2 -740 -3 -15 -2 6 -42 26 -46 11 -3 193 -6
404 -7 l382 -3 24 -29 c25 -33 56 -31 56 4 0 16 7 20 30 20 37 0 49 -23 26
-49 -9 -10 -16 -21 -16 -24 0 -13 79 -7 117 8 29 11 72 14 173 12 125 -2 135
-4 135 -22 0 -17 -10 -19 -134 -22 -134 -3 -159 -9 -148 -36 7 -19 61 -27 178
-27 93 0 96 -1 124 -30 37 -38 92 -43 97 -8 3 20 11 24 63 31 71 8 85 5 85
-23 0 -21 -5 -23 -58 -20 -53 3 -92 -10 -92 -29 0 -15 13 -20 73 -28 80 -11
87 -10 87 16 0 16 9 19 65 19 58 0 65 -2 65 -19 0 -16 -7 -19 -52 -19 -65 0
-88 -12 -72 -37 7 -12 28 -20 63 -23 38 -4 57 -12 69 -28 12 -15 33 -24 65
-28 27 -4 51 -13 54 -20 3 -7 24 -24 47 -38 24 -14 50 -36 59 -50 9 -13 25
-27 36 -31 11 -3 23 -15 26 -25 3 -10 15 -22 25 -25 10 -3 22 -14 25 -24 3
-11 15 -21 26 -24 11 -3 23 -14 26 -25 3 -11 14 -22 25 -25 11 -3 22 -14 25
-25 2 -11 16 -25 29 -31 13 -6 24 -17 24 -25 0 -7 11 -21 24 -29 16 -11 28
-33 36 -65 8 -36 18 -52 36 -60 21 -10 24 -18 24 -71 0 -50 4 -62 22 -75 20
-14 21 -20 15 -146 -7 -132 -16 -210 -24 -210 -2 0 -11 7 -20 15 -8 8 -19 13
-24 10 -5 -4 -9 -2 -9 3 0 14 -50 33 -71 27 -12 -4 -19 -2 -19 7 0 9 -3 10 -8
2 -4 -6 -20 -12 -37 -12 -63 -2 -88 -7 -93 -19 -5 -17 -52 -17 -53 0 0 8 -2 8
-5 1 -7 -16 -165 -9 -175 8 -8 12 -13 4 -10 -16 1 -5 -4 -4 -12 3 -18 14 -157
20 -252 10 -38 -4 -113 -10 -165 -14 -99 -6 -105 -7 -310 -26 -78 -7 -177 -9
-265 -4 -167 8 -166 8 -233 6 l-53 -1 21 -22 c11 -12 20 -27 20 -33 0 -14 78
-81 130 -112 19 -12 56 -44 82 -71 52 -55 101 -82 145 -82 37 1 101 30 144 67
19 16 77 59 129 96 52 36 114 82 137 102 39 34 110 57 154 49 69 -12 144 -36
151 -48 4 -8 23 -24 42 -35 18 -12 58 -45 89 -74 78 -74 124 -110 157 -124 32
-14 29 -17 100 89 19 28 58 75 85 105 48 50 52 53 105 54 30 1 60 0 65 -2 19
-6 55 12 49 24 -4 7 5 1 20 -13 25 -23 36 -25 129 -27 86 -2 104 -5 117 -21 8
-11 25 -25 38 -31 12 -7 22 -18 22 -27 0 -8 11 -19 25 -24 14 -5 25 -17 25
-25 0 -9 6 -26 13 -38 11 -17 13 -69 9 -229 -2 -117 -8 -208 -13 -208 -5 0
-15 12 -22 28 -6 15 -22 38 -35 52 -38 42 -69 101 -87 170 -26 95 -51 138 -82
146 -23 6 -32 1 -58 -29 -18 -20 -51 -73 -76 -118 -24 -45 -67 -106 -94 -136
-42 -44 -57 -53 -84 -53 -47 0 -134 45 -190 97 -25 25 -73 70 -106 102 -33 31
-79 66 -102 76 -24 10 -43 22 -43 27 0 10 -64 5 -95 -8 -43 -17 -100 -61 -178
-138 -156 -154 -269 -226 -354 -226 -27 0 -58 6 -69 14 -11 8 -40 20 -64 27
-25 7 -47 13 -50 14 -3 1 -25 6 -49 10 -37 7 -58 21 -128 90 -64 62 -105 93
-167 123 -102 51 -125 56 -195 41 -66 -13 -123 -43 -171 -90 -61 -58 -123
-109 -133 -109 -5 0 -39 -22 -76 -49 -114 -83 -113 -83 -290 -79 l-156 4 -70
40 c-90 51 -155 96 -214 148 -49 42 -86 65 -156 99 -32 15 -54 18 -109 13 -38
-3 -72 -9 -75 -14 -3 -6 -26 -20 -50 -33 -24 -12 -67 -47 -95 -77 -142 -152
-158 -165 -224 -183 -104 -30 -171 -33 -238 -14 -58 16 -139 57 -159 80 -5 6
-30 27 -55 45 -25 19 -75 64 -111 100 -68 68 -140 111 -190 112 -38 1 -60 -18
-53 -48 4 -17 -3 -33 -33 -64 -21 -23 -47 -56 -58 -74 -31 -50 -109 -134 -138
-147 -20 -9 -43 -7 -115 10 -49 12 -107 28 -128 37 -47 20 -106 79 -135 136
-34 68 -76 125 -109 148 -28 20 -33 20 -53 7 -14 -9 -32 -42 -46 -83 -34 -97
-97 -221 -119 -233 -14 -7 -25 -6 -41 5 -49 35 -64 96 -77 322 -6 96 -5 107
20 161 26 58 26 58 16 212 -5 85 -12 262 -15 394 -3 132 -8 249 -10 260 -2 11
-7 146 -10 300 -3 154 -8 294 -10 310 -5 43 -19 249 -17 258 3 12 -4 8 -24
-15 -10 -12 -13 -18 -6 -14 11 7 11 4 0 -13 -7 -12 -14 -17 -16 -11 -2 6 -9 7
-14 4 -7 -5 -8 -2 -3 6 4 7 2 16 -6 21 -8 5 -14 26 -15 48 0 23 -3 44 -7 47
-4 4 -7 16 -7 26 0 11 -4 16 -10 13 -5 -3 -10 3 -10 15 0 12 -4 18 -10 15 -5
-3 -12 6 -16 21 -4 14 -9 22 -13 17 -3 -4 -12 -8 -20 -8 -8 0 -15 -9 -16 -20
-1 -11 -5 -45 -8 -75 -16 -133 -33 -475 -37 -725 -2 -99 -4 -200 -5 -225 -1
-25 -6 -137 -10 -250 -4 -113 -9 -208 -11 -211 -2 -3 -4 -77 -4 -165 -2 -189
-18 -364 -37 -390 -11 -15 -25 -18 -70 -16 -55 2 -256 54 -278 72 -5 4 -32 15
-60 23 -87 26 -165 67 -170 91 -2 11 -6 62 -9 111 -3 50 -10 135 -15 190 -6
55 -13 152 -16 215 -3 63 -7 133 -9 155 -3 22 -7 83 -11 136 -18 290 -56 549
-86 597 -21 34 -55 16 -73 -38 -9 -27 -16 -58 -16 -69 0 -11 -4 -22 -9 -25 -5
-3 -9 -21 -9 -40 0 -18 -4 -42 -9 -52 -6 -11 -9 -32 -9 -49 1 -16 -2 -32 -6
-35 -13 -10 -29 -223 -43 -550 -7 -168 -15 -264 -23 -277 -4 -6 -19 -7 -39 -1
-39 10 -130 108 -211 227 -73 105 -221 377 -267 486 -92 222 -151 308 -227
332 -21 6 -38 8 -38 5 0 -4 -93 -7 -208 -6 -223 1 -231 2 -309 60 -27 20 -43
24 -106 24 -76 0 -148 -18 -177 -45 -23 -21 -30 -10 -30 46 0 43 3 50 28 63
15 8 38 26 51 40 22 24 32 26 100 26 41 0 115 -5 164 -11 75 -10 91 -10 103 3
13 12 15 89 14 519 0 277 -3 569 -6 649 l-6 145 41 44 c22 25 42 50 44 55 2 7
68 12 185 14 176 3 181 4 184 25 2 17 13 23 47 30 l44 9 -5 61 c-6 71 -2 87
18 87 8 0 18 8 21 18 9 22 58 72 72 72 7 0 16 11 21 25 6 16 16 25 27 23 11
-2 19 6 23 22 l6 25 229 5 230 5 3 58 c3 54 4 57 29 57 25 0 25 0 21 -75 -2
-42 -9 -80 -16 -87 -9 -9 -74 -13 -250 -14 -130 -1 -240 -2 -244 -3 -5 -1 -8
-10 -8 -21 0 -13 -7 -20 -19 -20 -11 0 -21 -9 -25 -24 -3 -13 -15 -26 -26 -29
-11 -3 -20 -12 -20 -20 0 -9 -9 -18 -20 -22 -17 -5 -20 -17 -22 -98 l-3 -92
-65 -11 c-36 -7 -66 -12 -68 -13 -1 -1 2 -10 8 -21 9 -16 21 -20 68 -20 37 0
66 -6 81 -16 35 -25 41 -6 41 128 l0 117 40 40 c22 22 40 44 40 50 0 6 17 11
38 12 20 0 143 1 272 2 129 1 241 6 248 10 8 6 12 38 12 101 l0 94 41 41 41
41 279 0 279 0 6 26 c4 14 4 57 0 96 -8 83 6 144 34 153 11 4 23 17 26 30 5
22 12 24 72 27 37 2 163 1 281 -1 l215 -4 33 -33z m-719 -114 c-1 -54 -7 -104
-13 -109 -11 -11 -521 -18 -531 -8 -3 3 -3 15 1 26 6 21 12 21 251 21 l244 0
0 78 c0 84 3 92 33 92 18 0 19 -7 15 -100z m2132 65 l0 -25 -255 0 -255 0 0
-25 c0 -18 -7 -28 -25 -35 -14 -5 -25 -16 -25 -24 0 -8 -10 -16 -22 -18 -15
-2 -24 -11 -26 -25 -4 -27 -37 -31 -46 -7 -8 21 1 34 25 34 14 0 19 7 19 25 0
18 5 25 19 25 13 0 21 8 23 23 2 16 11 23 31 25 18 2 27 9 27 21 0 10 3 21 7
24 3 4 118 7 255 7 l248 0 0 -25z m-1230 -75 l0 -60 220 0 c210 0 220 -1 230
-20 15 -27 14 -27 -185 -34 -182 -6 -282 2 -296 25 -5 8 -9 44 -9 82 0 60 2
67 20 67 18 0 20 -7 20 -60z m1300 25 c0 -20 5 -25 25 -25 29 0 36 -34 9 -44
-21 -8 -34 1 -34 25 0 14 -7 19 -30 19 -22 0 -30 5 -30 18 0 25 9 32 37 32 18
0 23 -5 23 -25z m102 -81 c3 -3 3 -14 1 -25 -8 -28 -47 -21 -51 9 -3 17 1 22
21 22 13 0 26 -3 29 -6z m-834 -106 c3 -43 1 -48 -18 -48 -13 0 -24 9 -30 25
-6 15 -17 25 -30 25 -13 0 -20 7 -20 18 0 28 10 33 55 30 l40 -3 3 -47z m892
-195 c0 -137 0 -254 0 -260 0 -10 34 -13 135 -13 l135 0 0 -26 0 -26 -150 4
c-82 2 -153 7 -156 11 -4 4 -10 131 -12 282 l-5 275 27 0 27 0 -1 -247z
m-2910 217 c0 -11 -7 -20 -15 -20 -8 0 -19 -9 -25 -20 -6 -11 -8 -20 -4 -20 3
0 1 -6 -5 -14 -18 -22 -46 -13 -46 15 0 19 6 25 29 29 17 3 29 8 28 13 -6 23
0 37 18 37 13 0 20 -7 20 -20z m-902 -512 c-3 -23 -5 -23 -184 -26 l-181 -2 5
25 4 25 180 0 179 0 -3 -22z m-365 -58 c6 -23 0 -30 -26 -30 -10 0 -21 -9 -24
-20 -3 -11 -12 -20 -20 -20 -8 0 -17 -9 -20 -20 -6 -23 -43 -28 -43 -5 0 8 9
19 20 25 11 6 20 17 20 25 0 8 7 15 15 15 9 0 18 8 22 18 16 43 46 50 56 12z
m4502 0 c0 -18 -6 -26 -21 -28 -26 -4 -40 24 -23 45 18 21 44 11 44 -17z m53
-53 c4 -21 -25 -34 -40 -19 -8 8 -8 16 2 27 16 19 34 15 38 -8z m50 -65 c3
-17 -2 -22 -17 -22 -16 0 -21 6 -21 26 0 33 33 30 38 -4z m-4738 -621 c0 -538
-2 -620 -15 -631 -39 -33 -40 -17 -37 623 2 659 0 619 45 626 4 0 7 -277 7
-618z m4796 22 c-6 -514 -14 -660 -29 -519 -3 31 -6 248 -7 483 -1 236 -3 461
-5 502 -5 83 -2 91 27 91 l21 0 -7 -557z m889 -533 l0 -24 -218 -2 c-228 -2
-239 0 -224 40 5 12 44 14 224 12 l218 -2 0 -24z m-467 -44 c32 -20 -11 -28
-135 -26 -112 2 -199 5 -240 9 -7 1 -13 5 -13 11 0 16 363 22 388 6z m-5468
-65 c0 -4 -17 -11 -37 -15 -55 -9 -63 -8 -63 9 0 11 12 15 50 15 28 0 50 -4
50 -9z m-230 -174 c0 -30 -10 -40 -27 -26 -20 18 -16 49 7 49 14 0 20 -7 20
-23z m7643 17 c9 -9 -12 -44 -26 -44 -7 0 -21 7 -32 16 -17 13 -18 16 -5 24
17 11 54 13 63 4z m422 -185 c10 -16 0 -21 -50 -25 -39 -2 -45 0 -45 17 0 16
7 19 44 19 25 0 48 -5 51 -11z m65 -54 c0 -21 -5 -25 -30 -25 -22 0 -30 5 -30
18 0 25 9 32 37 32 18 0 23 -5 23 -25z m85 -57 c28 -24 33 -48 10 -48 -8 0
-15 7 -15 15 0 8 -8 15 -17 15 -26 0 -47 16 -39 29 11 17 33 13 61 -11z m85
-78 c0 -13 -7 -20 -20 -20 -13 0 -20 7 -20 20 0 13 7 20 20 20 13 0 20 -7 20
-20z m48 -53 c2 -12 -3 -17 -17 -17 -15 0 -21 6 -21 21 0 25 33 22 38 -4z m50
-49 c3 -13 -3 -18 -22 -18 -20 0 -26 5 -26 21 0 15 5 20 22 17 13 -2 24 -11
26 -20z m58 -53 c4 -16 13 -25 25 -25 10 0 19 -4 19 -9 0 -5 3 -16 6 -25 5
-13 -1 -16 -25 -16 -26 0 -31 4 -31 24 0 18 -6 25 -22 28 -15 2 -24 11 -26 26
-3 18 1 22 22 22 19 0 27 -7 32 -25z m104 -105 c0 -13 -7 -20 -20 -20 -13 0
-20 7 -20 20 0 13 7 20 20 20 13 0 20 -7 20 -20z m60 -95 c0 -28 -4 -35 -20
-35 -12 0 -22 9 -26 24 -7 31 1 46 27 46 15 0 19 -7 19 -35z m50 -124 c0 -41
-4 -60 -14 -64 -22 -9 -26 2 -26 65 0 51 2 58 20 58 18 0 20 -7 20 -59z m48
-119 c10 -7 11 -34 4 -133 -5 -68 -8 -127 -5 -131 2 -5 31 -8 64 -8 54 0 59
-2 59 -21 0 -21 -3 -21 -58 -16 -94 10 -91 6 -91 112 0 51 -3 113 -6 138 -9
60 2 78 33 59z m180 -350 c3 -18 -1 -22 -22 -22 -19 0 -26 5 -26 18 0 39 43
43 48 4z m50 -50 c3 -16 -2 -22 -16 -22 -19 0 -36 32 -24 45 13 12 37 -1 40
-23z m45 -46 c7 -17 -1 -26 -24 -26 -15 0 -18 11 -10 38 3 9 30 -1 34 -12z
m40 -52 c8 -8 -3 -34 -14 -34 -5 0 -9 9 -9 20 0 19 11 26 23 14z m41 -50 c11
-4 16 -19 16 -50 0 -37 -3 -44 -20 -44 -12 0 -21 7 -21 18 -1 9 -3 28 -4 42
-4 38 2 44 29 34z m16 -122 c0 -4 -9 -8 -20 -9 -22 -2 -27 13 -7 20 14 5 27
-1 27 -11z m-2 -192 c-3 -149 -8 -169 -35 -152 -9 6 -10 30 -2 102 15 133 16
190 6 190 -5 0 -4 7 3 15 25 30 31 -2 28 -155z m-53 -180 c0 -8 -8 -16 -17
-18 -13 -2 -18 3 -18 18 0 15 5 20 18 18 9 -2 17 -10 17 -18z m-55 -55 c0 -8
-7 -15 -15 -15 -8 0 -15 7 -15 15 0 8 7 15 15 15 8 0 15 -7 15 -15z m-52 -47
c-3 -7 -11 -13 -18 -13 -7 0 -15 6 -17 13 -3 7 4 12 17 12 13 0 20 -5 18 -12z
m-50 -40 c-2 -19 -9 -23 -36 -22 -18 1 -40 5 -50 9 -14 6 -10 10 18 20 54 21
72 19 68 -7z m-138 -6 c0 -10 -22 -32 -32 -32 -4 0 -8 9 -8 20 0 13 7 20 20
20 11 0 20 -4 20 -8z m-3306 -118 c59 -23 -46 -66 -234 -95 -41 -6 -87 -17
-101 -24 -27 -15 -184 -67 -252 -86 -34 -9 -230 -103 -337 -161 -64 -34 -241
-159 -309 -218 -124 -106 -130 -110 -176 -110 -40 0 -47 4 -87 52 -23 29 -81
91 -128 138 -47 47 -101 106 -120 132 -19 25 -48 54 -63 63 -27 16 -32 16 -71
1 -23 -9 -77 -20 -121 -26 -72 -9 -83 -13 -106 -41 -26 -32 -26 -32 -75 -20
-75 18 -79 22 -79 90 1 53 4 64 30 91 49 51 100 64 221 56 l106 -7 -6 28 c-4
15 -9 35 -12 44 -2 9 3 25 13 34 18 19 70 18 331 -5 63 -6 160 -8 215 -5 56 3
226 7 377 10 151 2 345 11 430 19 284 28 375 38 385 41 19 6 153 5 169 -1z
m3147 -91 c13 -21 31 -44 41 -51 10 -7 18 -20 18 -28 0 -8 10 -24 22 -36 27
-27 27 -60 -3 -224 -25 -140 -42 -187 -76 -209 -46 -30 -80 -16 -242 104 -86
64 -416 232 -581 297 -134 52 -260 112 -260 124 0 27 183 26 353 -2 100 -17
175 -22 312 -22 217 -1 276 6 315 40 12 10 70 44 77 44 1 0 12 -17 24 -37z
m144 -93 c-3 -5 -10 -10 -16 -10 -5 0 -9 5 -9 10 0 6 7 10 16 10 8 0 12 -4 9
-10z m66 -105 c-1 -33 -5 -62 -8 -65 -9 -10 -23 26 -18 48 3 13 1 30 -6 38
-15 19 -3 46 18 42 15 -3 17 -12 14 -63z m7 -558 c4 -20 -25 -34 -40 -19 -15
15 -1 44 19 40 10 -2 19 -11 21 -21z m-68 -57 c0 -5 -4 -10 -10 -10 -5 0 -10
5 -10 10 0 6 5 10 10 10 6 0 10 -4 10 -10z m-52 -57 c-4 -22 -22 -20 -26 1 -2
10 3 16 13 16 10 0 15 -7 13 -17z m-55 -40 c3 -5 -2 -36 -11 -70 l-17 -63 -43
0 c-50 0 -132 19 -132 30 0 16 29 77 42 88 12 9 45 15 130 20 15 1 29 -1 31
-5z m-5190 -64 c42 -17 77 -35 77 -39 0 -14 -51 -50 -70 -50 -24 0 -44 -26
-36 -46 4 -9 9 -14 13 -10 3 3 15 -1 25 -11 10 -9 18 -13 18 -9 0 4 8 2 19 -3
11 -6 19 -21 19 -36 0 -14 10 -37 23 -51 20 -21 21 -28 11 -44 -34 -54 6 -76
112 -60 39 5 94 17 121 25 44 14 90 14 385 5 240 -8 353 -16 400 -27 160 -39
188 -73 90 -107 -14 -4 -158 -12 -320 -16 -275 -7 -305 -10 -449 -39 -84 -18
-172 -40 -195 -51 -22 -10 -77 -33 -121 -49 -138 -52 -167 -75 -497 -393 l-80
-78 -56 0 c-74 0 -81 11 -81 125 -1 83 2 93 29 134 17 24 30 52 30 61 0 27 50
130 84 175 40 51 104 113 147 143 83 56 145 92 160 92 9 0 27 8 40 19 13 10
35 22 49 26 95 28 83 65 -21 65 -76 0 -95 11 -103 63 -3 18 -11 65 -17 106
-12 72 -12 74 10 92 34 28 94 24 184 -12z m5295 -109 c-1 -107 -2 -111 -22
-108 -17 2 -20 9 -18 33 2 17 3 65 2 108 -1 71 0 77 18 77 19 0 20 -6 20 -110z
m-2890 80 c177 -11 310 -39 368 -76 28 -19 25 -47 -9 -77 -21 -18 -34 -52 -16
-41 5 3 9 -2 9 -10 0 -8 7 -21 15 -30 13 -13 13 -15 -2 -20 -86 -27 -1263 -37
-1447 -12 -87 11 -102 16 -123 40 -25 30 -30 76 -12 138 18 67 86 86 337 96
222 9 665 5 880 -8z m-5265 -164 c8 -19 -15 -37 -32 -26 -17 10 -7 40 13 40 7
0 16 -6 19 -14z m8242 -55 c0 -19 -53 -37 -67 -23 -6 6 -8 18 -4 27 8 21 71
17 71 -4z m-153 -17 c15 -8 33 -14 41 -14 7 0 23 -11 35 -25 12 -14 27 -25 33
-25 12 0 132 -119 182 -180 15 -19 27 -44 27 -57 0 -12 10 -29 23 -38 20 -14
22 -22 20 -101 -3 -108 -11 -117 -98 -108 -38 4 -68 13 -81 25 -11 10 -32 19
-47 19 -18 0 -31 9 -43 29 -19 33 -63 61 -94 61 -15 0 -25 9 -33 30 -14 36
-22 37 -78 6 -36 -19 -65 -25 -154 -30 -252 -15 -293 -17 -350 -22 -71 -7
-173 -6 -197 2 -15 4 -15 8 -5 24 20 34 97 59 193 64 133 7 278 24 310 37 28
10 137 35 198 44 16 3 31 6 32 8 10 10 -40 67 -72 82 -54 24 -74 44 -74 71 0
24 26 46 70 59 14 4 40 21 58 37 35 30 48 30 104 2z m202 -29 c3 -9 -1 -18
-10 -22 -19 -7 -39 11 -30 26 10 16 33 13 40 -4z m40 -31 c9 -3 16 -15 16 -25
0 -10 7 -19 15 -19 21 0 31 -30 14 -40 -17 -11 -29 -3 -29 21 0 12 -7 19 -19
19 -23 0 -35 15 -27 35 6 17 8 17 30 9z m-895 -44 c35 -5 71 -16 80 -25 14
-14 13 -17 -4 -35 -11 -10 -62 -30 -114 -44 -52 -14 -111 -36 -131 -50 -69
-46 -247 -207 -491 -444 -219 -214 -221 -215 -285 -209 -39 4 -78 20 -160 67
-162 92 -299 166 -394 211 -47 23 -126 61 -175 85 -50 24 -121 55 -158 69 -37
13 -75 29 -84 35 -36 20 -148 60 -212 76 -36 9 -100 30 -141 46 -41 17 -115
39 -165 50 -49 10 -103 26 -120 33 -16 8 -56 22 -88 30 -60 16 -95 39 -77 50
5 3 14 4 19 1 5 -4 11 0 13 6 4 10 45 12 184 8 260 -7 758 -6 1419 2 443 6
625 12 770 27 237 23 236 23 314 11z m999 -72 c-6 -18 -28 -21 -28 -4 0 9 7
16 16 16 9 0 14 -5 12 -12z m60 -78 c17 -38 12 -74 -10 -78 -16 -3 -18 4 -17
52 1 31 4 56 8 56 3 0 12 -13 19 -30z m-4285 -55 c184 -47 299 -60 672 -75
121 -5 229 -11 240 -13 11 -3 52 -8 90 -12 62 -6 218 -60 275 -95 8 -5 62 -32
120 -61 144 -72 179 -95 193 -127 6 -15 19 -33 27 -40 13 -11 12 -12 -7 -7
-14 4 -23 2 -23 -4 0 -6 9 -11 21 -11 12 0 19 -5 16 -12 -2 -7 5 -25 15 -40
11 -16 16 -28 11 -28 -4 0 0 -7 10 -14 10 -8 16 -20 15 -27 -2 -8 3 -13 11
-11 9 2 11 -3 7 -13 -3 -9 1 -18 9 -21 8 -4 15 -10 15 -16 0 -5 -4 -6 -10 -3
-6 3 -7 -1 -4 -9 3 -9 10 -16 15 -16 5 0 9 -7 9 -15 0 -8 9 -20 20 -27 11 -7
20 -17 20 -23 0 -13 42 -51 52 -47 4 1 7 -8 5 -21 -1 -16 3 -21 17 -19 11 2
15 -1 11 -7 -3 -6 1 -11 9 -11 9 0 16 -4 16 -10 0 -5 -4 -10 -10 -10 -5 0 -10
-5 -10 -10 0 -6 3 -9 8 -8 16 3 40 -14 36 -26 -3 -8 -34 -16 -80 -20 -78 -7
-1597 -8 -1649 -1 -16 2 -60 5 -97 6 -38 1 -68 7 -68 12 0 6 -3 7 -7 4 -9 -9
-34 13 -27 24 3 5 -1 10 -8 10 -7 1 -31 3 -53 5 -22 2 -41 8 -43 13 -2 5 -10
7 -18 4 -8 -3 -14 -1 -14 5 0 5 -11 7 -24 5 -13 -3 -36 3 -51 13 -25 17 -47
23 -85 25 -8 0 -22 3 -30 6 -8 4 -26 8 -40 10 -14 2 -36 8 -50 13 -14 5 -40
12 -59 15 -19 3 -43 11 -54 17 -20 10 -35 14 -79 17 -10 0 -18 7 -18 14 0 9
-22 19 -55 26 -31 7 -61 19 -68 27 -22 28 -48 49 -58 49 -17 0 -68 101 -62
124 3 14 0 23 -11 27 -9 3 -14 10 -11 14 3 5 1 11 -4 14 -7 5 -21 68 -25 118
-1 3 -4 9 -8 13 -4 4 -4 13 -2 20 3 7 1 15 -3 18 -5 3 -7 22 -5 42 6 47 74
118 141 147 136 58 251 75 531 77 178 1 204 -1 293 -24z m4352 -140 c0 -97 -1
-100 -23 -103 -23 -3 -23 -2 -16 60 3 35 7 65 7 68 0 3 -3 17 -7 32 -9 32 0
50 22 46 15 -3 17 -18 17 -103z m-8225 -45 c0 -5 -4 -10 -10 -10 -5 0 -10 5
-10 10 0 6 5 10 10 10 6 0 10 -4 10 -10z m7804 -65 c-4 -8 -10 -15 -15 -15 -4
0 -6 7 -3 15 4 8 10 15 15 15 4 0 6 -7 3 -15z m91 -25 c3 -5 -1 -10 -10 -10
-9 0 -13 5 -10 10 3 6 8 10 10 10 2 0 7 -4 10 -10z m273 -7 c-2 -10 -13 -19
-26 -21 -17 -3 -22 2 -22 17 0 16 6 21 26 21 19 0 25 -5 22 -17z m-6307 -25
c4 -44 -4 -185 -11 -197 -16 -29 -26 24 -22 117 3 70 7 92 18 92 8 0 14 -6 15
-12z m6257 -23 c5 -21 -13 -34 -39 -28 -24 7 -25 29 -1 42 22 13 36 9 40 -14z
m-144 -16 c-8 -14 -34 -11 -34 4 0 8 3 17 7 20 9 9 34 -13 27 -24z m-5669
-109 c3 -5 -1 -10 -9 -10 -9 0 -19 0 -23 -1 -4 0 -9 4 -11 10 -5 14 35 14 43
1z m-95 -61 c0 -5 -7 -9 -15 -9 -15 0 -20 12 -9 23 8 8 24 -1 24 -14z m-60
-44 c0 -8 -7 -15 -15 -15 -8 0 -15 7 -15 15 0 8 7 15 15 15 8 0 15 -7 15 -15z
m5646 -32 c-10 -10 -19 5 -10 18 6 11 8 11 12 0 2 -7 1 -15 -2 -18z m-5699 -9
c8 -22 -12 -38 -41 -30 -39 10 -22 38 27 45 4 0 10 -6 14 -15z m5603 -73 c0
-12 -20 -25 -27 -18 -7 7 6 27 18 27 5 0 9 -4 9 -9z m-5290 -5 c0 -3 -4 -8
-10 -11 -5 -3 -10 -1 -10 4 0 6 5 11 10 11 6 0 10 -2 10 -4z m5230 -46 c0 -5
-5 -10 -11 -10 -5 0 -7 5 -4 10 3 6 8 10 11 10 2 0 4 -4 4 -10z m-45 -50 c-3
-5 -10 -10 -16 -10 -5 0 -9 5 -9 10 0 6 7 10 16 10 8 0 12 -4 9 -10z m-2764
-250 c5 0 9 -4 9 -10 0 -5 -20 -10 -45 -10 -25 0 -45 4 -45 9 0 11 38 20 58
15 8 -2 18 -4 23 -4z m203 4 c33 -13 14 -24 -38 -24 -79 0 -87 27 -9 29 17 1
38 -2 47 -5z m1196 -4 c0 -5 -7 -10 -16 -10 -8 0 -12 5 -9 10 3 6 10 10 16 10
5 0 9 -4 9 -10z m-2140 -10 c0 -5 -13 -10 -30 -10 -16 0 -30 5 -30 10 0 6 14
10 30 10 17 0 30 -4 30 -10z m313 3 c-7 -2 -19 -2 -25 0 -7 3 -2 5 12 5 14 0
19 -2 13 -5z m54 1 c-3 -3 -12 -4 -19 -1 -8 3 -5 6 6 6 11 1 17 -2 13 -5z
m226 -1 c-7 -2 -19 -2 -25 0 -7 3 -2 5 12 5 14 0 19 -2 13 -5z m3630 -706 c34
-75 77 -120 147 -153 33 -15 60 -31 60 -35 0 -3 -17 -13 -37 -21 -63 -26 -121
-75 -153 -130 -16 -29 -30 -61 -30 -70 0 -35 -19 -17 -46 43 -31 69 -93 129
-160 155 -24 9 -44 20 -44 24 0 4 20 15 43 24 66 25 122 79 158 151 17 36 33
65 35 65 1 0 13 -24 27 -53z"/>
<path d="M4288 6674 c-7 -9 -23 -26 -35 -39 -13 -12 -23 -27 -23 -34 0 -6 -4
-11 -8 -11 -10 0 -38 -97 -51 -175 -5 -33 -12 -127 -16 -209 -4 -82 -9 -154
-11 -160 -2 -6 0 -17 5 -24 7 -11 14 -11 42 3 19 10 36 21 39 25 3 3 28 19 56
34 88 47 119 84 116 136 -7 125 -26 330 -34 374 -15 80 -51 116 -80 80z"/>
<path d="M5137 6499 c7 -7 15 -10 18 -7 3 3 -2 9 -12 12 -14 6 -15 5 -6 -5z"/>
<path d="M6070 5076 c-11 -5 -19 -14 -17 -20 6 -19 166 -142 254 -197 68 -41
98 -54 139 -57 60 -5 113 10 153 44 15 13 61 42 102 65 98 56 181 127 177 153
-3 20 -12 20 -395 21 -217 0 -402 -4 -413 -9z"/>
<path d="M5500 5070 c-25 -4 -151 -6 -280 -4 -242 3 -270 1 -270 -20 0 -19 68
-80 147 -130 40 -26 75 -51 78 -56 3 -5 27 -19 53 -30 51 -23 101 -21 122 5 7
8 18 15 25 15 7 0 19 7 26 16 8 9 30 27 49 39 19 12 59 46 89 74 30 29 61 56
70 61 40 22 -34 43 -109 30z"/>
<path d="M4458 5055 c-1 -2 -57 -6 -122 -9 -65 -3 -123 -9 -128 -14 -17 -17 1
-48 53 -90 67 -55 96 -55 150 -2 50 48 82 107 64 114 -7 2 -15 3 -17 1z"/>
<path d="M7130 1600 c0 -5 7 -10 15 -10 8 0 15 5 15 10 0 6 -7 10 -15 10 -8 0
-15 -4 -15 -10z"/>
</g>
</svg>
